<svg width="250" height="251" viewBox="0 0 250 251" fill="none" xmlns="http://www.w3.org/2000/svg">
<g id="baby-boy">
<g id="Group">
<g id="Group_2">
<path id="Vector" d="M145.558 234.958C143.056 233.951 140.212 235.171 139.209 237.685C138.37 239.784 136.244 241.195 133.919 241.195H116.081C113.756 241.195 111.63 239.784 110.792 237.685C109.788 235.171 106.946 233.953 104.442 234.958C101.94 235.966 100.724 238.82 101.727 241.333C104.072 247.206 109.706 251 116.081 251H133.919C140.294 251 145.928 247.206 148.273 241.333C149.276 238.82 148.061 235.966 145.558 234.958Z" fill="#303237"/>
</g>
</g>
<g id="Group_3">
<g id="Group_4">
<path id="Vector_2" d="M202.901 209.704C201.575 202.838 197.362 196.895 191.34 193.385C192.435 192.487 193.462 191.493 194.4 190.4C199.024 185.006 201.072 177.875 200.017 170.838C198.304 159.404 193.456 148.72 186 139.941C180.417 133.369 173.555 128.072 165.874 124.35C175.273 114.284 181.039 100.758 181.039 85.9047C181.038 60.1998 163.779 38.4653 140.285 31.7691C143.485 27.9331 145.231 23.1405 145.231 18.0764C145.231 8.10897 137.154 0 127.227 0C127.226 0 127.226 0 127.225 0C123.218 0 119.465 1.30844 116.658 3.68362C113.555 6.30834 111.847 9.99735 111.846 14.0707C111.846 16.7778 114.032 18.9731 116.729 18.9731C119.425 18.9731 121.612 16.7783 121.612 14.0707C121.612 12.9044 122.062 11.9323 122.951 11.1803C123.999 10.293 125.517 9.8042 127.226 9.8042H127.226C131.769 9.8042 135.466 13.5143 135.466 18.0754C135.466 21.1649 134.267 24.069 132.092 26.2535C129.916 28.4375 127.024 29.6406 123.948 29.6406C123.947 29.6406 123.947 29.6406 123.947 29.6406C123.827 29.6406 123.71 29.6499 123.593 29.6587C93.3407 30.4117 68.9613 55.3533 68.9608 85.9043C68.9608 100.758 74.7264 114.283 84.1253 124.35C76.4456 128.072 69.5833 133.368 64.0003 139.941C56.5438 148.719 51.6966 159.403 49.9827 170.837C48.9281 177.875 50.9754 185.005 55.5999 190.399C56.5374 191.493 57.5648 192.487 58.66 193.384C52.638 196.894 48.4246 202.838 47.099 209.703C45.7694 216.586 47.4754 223.701 51.7786 229.222L62.2352 242.638C66.4598 248.058 72.8773 250.972 79.3866 250.972C83.0819 250.972 86.8075 250.033 90.1776 248.079C99.4847 242.684 103.473 231.07 99.4549 221.063L93.1116 205.264C92.6878 204.208 92.1868 203.196 91.6278 202.223H127.441C130.138 202.223 132.324 200.028 132.324 197.321C132.324 194.614 130.138 192.418 127.441 192.418H82.3455V182.084C82.3455 180.753 83.4237 179.67 84.7493 179.67H165.251C166.576 179.67 167.655 180.753 167.655 182.084V193.096C162.81 195.763 158.985 200.04 156.888 205.264L150.544 221.062C146.526 231.07 150.514 242.684 159.822 248.079C163.192 250.033 166.916 250.972 170.613 250.972C177.121 250.972 183.54 248.057 187.764 242.638L198.221 229.222C202.525 223.701 204.23 216.587 202.901 209.704ZM78.7259 85.9047C78.7264 60.2875 99.4852 39.4462 125 39.4457C150.514 39.4462 171.273 60.2875 171.274 85.9047C171.274 111.522 150.515 132.363 125 132.364C99.4847 132.363 78.7259 111.522 78.7259 85.9047ZM84.0555 208.93L90.3988 224.729C92.6082 230.233 90.4139 236.621 85.2952 239.589C80.1771 242.556 73.5692 241.27 69.9261 236.596L59.4696 223.181C56.9095 219.897 55.8949 215.665 56.6859 211.57C57.4769 207.476 59.994 203.932 63.5916 201.846C67.1888 199.761 71.5047 199.345 75.432 200.704C79.3592 202.063 82.5023 205.062 84.0555 208.93ZM165.283 160.062C162.586 160.062 160.4 162.257 160.4 164.964V169.866H89.6317V164.964C89.6317 162.257 87.4456 160.062 84.7489 160.062C82.0521 160.062 79.866 162.257 79.866 164.964V170.896C75.5804 172.789 72.5794 177.09 72.5794 182.084V189.007C68.8817 188.636 65.4505 186.86 63.0008 184.003C60.2337 180.775 59.0086 176.508 59.6395 172.296C62.4349 153.641 74.8236 138.228 92.2157 131.506C101.44 138.209 112.767 142.168 125 142.168C137.232 142.168 148.559 138.209 157.784 131.506C175.176 138.228 187.565 153.641 190.36 172.296C190.991 176.508 189.766 180.775 186.998 184.003C184.549 186.86 181.118 188.636 177.42 189.007V182.084C177.42 177.103 174.434 172.811 170.166 170.911V164.964C170.166 162.257 167.98 160.062 165.283 160.062ZM190.53 223.18L180.074 236.595C176.431 241.269 169.824 242.555 164.705 239.588C159.586 236.621 157.392 230.233 159.602 224.728L165.945 208.929C167.498 205.061 170.641 202.062 174.569 200.703C176.09 200.177 177.669 199.917 179.242 199.917C181.731 199.917 184.205 200.568 186.409 201.846C190.007 203.931 192.523 207.476 193.315 211.57C194.105 215.664 193.09 219.896 190.53 223.18Z" fill="#303237"/>
</g>
</g>
<g id="Group_5">
<g id="Group_6">
<path id="Vector_3" d="M150.288 193.853C149.38 192.942 148.12 192.417 146.836 192.417C145.552 192.417 144.292 192.941 143.384 193.853C142.476 194.766 141.953 196.03 141.953 197.319C141.953 198.614 142.476 199.873 143.384 200.785C144.292 201.702 145.552 202.222 146.836 202.222C148.12 202.222 149.38 201.702 150.288 200.785C151.196 199.873 151.719 198.609 151.719 197.319C151.719 196.03 151.196 194.765 150.288 193.853Z" fill="#303237"/>
</g>
</g>
<g id="Group_7">
<g id="Group_8">
<path id="Vector_4" d="M138.462 102.646C136.367 100.941 133.292 101.265 131.594 103.368C129.972 105.378 127.568 106.53 125 106.53C122.432 106.53 120.028 105.377 118.406 103.368C116.708 101.264 113.633 100.942 111.538 102.646C109.443 104.351 109.121 107.438 110.819 109.541C114.305 113.859 119.474 116.334 125 116.334C130.526 116.334 135.696 113.858 139.181 109.541C140.879 107.438 140.557 104.351 138.462 102.646Z" fill="#303237"/>
</g>
</g>
<g id="Group_9">
<g id="Group_10">
<path id="Vector_5" d="M112.661 82.4378C108.232 77.9909 101.025 77.9909 96.595 82.4378C94.6883 84.3522 94.6878 87.4559 96.595 89.3707C98.5018 91.2856 101.594 91.2856 103.5 89.3712C104.122 88.7472 105.134 88.7472 105.756 89.3712C106.71 90.3282 107.959 90.8071 109.209 90.8071C110.458 90.8071 111.708 90.3282 112.661 89.3712C114.568 87.4569 114.568 84.3527 112.661 82.4378Z" fill="#303237"/>
</g>
</g>
<g id="Group_11">
<g id="Group_12">
<path id="Vector_6" d="M153.405 82.4374C148.975 77.9909 141.768 77.9909 137.338 82.4374C135.432 84.3517 135.432 87.4559 137.338 89.3708C138.292 90.3282 139.542 90.8066 140.791 90.8066C142.041 90.8066 143.291 90.3277 144.244 89.3708C144.865 88.7472 145.878 88.7462 146.5 89.3708C148.406 91.2856 151.498 91.2851 153.405 89.3703C155.312 87.4559 155.312 84.3522 153.405 82.4374Z" fill="#303237"/>
</g>
</g>
</g>
</svg>
