<svg width="250" height="252" viewBox="0 0 250 252" fill="none" xmlns="http://www.w3.org/2000/svg">
<g clip-path="url(#clip0_42_56)">
<path d="M125 0C56.0708 0 0 56.5194 0 126C0 195.481 56.0708 252 125 252C193.929 252 250 195.481 250 126C250 56.5194 193.929 0 125 0ZM125 241.5C61.8184 241.5 10.4165 189.687 10.4165 126C10.4165 62.3129 61.8184 10.4998 125 10.4998C188.182 10.4998 239.583 62.3129 239.583 126C239.583 189.687 188.182 241.5 125 241.5Z" fill="#303237"/>
<path d="M192.708 157.5H57.2915C55.7046 157.5 54.1992 158.238 53.2124 159.489C52.2153 160.751 51.8594 162.391 52.2256 163.96C59.896 196.721 90.5049 220.5 125 220.5C159.455 220.5 190.063 196.721 197.774 163.96C198.141 162.401 197.785 160.75 196.798 159.499C195.811 158.238 194.306 157.5 192.708 157.5ZM125 210C115.089 210 105.46 207.574 96.7876 203.335C100.122 201.266 104.311 199.5 109.375 199.5C113.871 199.5 118.246 200.73 122.375 203.15C124.003 204.114 125.997 204.114 127.625 203.15C135.825 198.341 145.392 198.554 153.346 203.269C144.637 207.555 134.956 210 125 210ZM163.096 197.328C152.081 188.47 137.398 186.57 125 192.671C112.746 186.653 98.2671 188.409 87.0303 197.457C76.7383 190.044 68.583 179.842 64.2803 168H185.71C181.415 179.778 173.31 189.925 163.096 197.328Z" fill="#303237"/>
<path d="M83.3335 115.5C100.566 115.5 114.584 101.37 114.584 84.0001C114.584 66.6298 100.566 52.5001 83.3335 52.5001C66.1011 52.5001 52.0835 66.6298 52.0835 84.0001C52.0835 101.37 66.1011 115.5 83.3335 115.5ZM83.3335 63C94.8184 63 104.167 72.4234 104.167 84.0001C104.167 95.5769 94.8184 105 83.3335 105C81.2759 105 79.3276 104.605 77.4487 104.042C79.7896 100.019 79.4287 94.8297 76.0093 91.3829C72.5811 87.9273 67.4419 87.5621 63.4502 89.9295C62.8921 88.0366 62.5005 86.0727 62.5005 84.0001C62.5 72.4234 71.8486 63 83.3335 63Z" fill="#303237"/>
<path d="M166.667 52.5001C149.434 52.5001 135.417 66.6298 135.417 84.0001C135.417 101.37 149.434 115.5 166.667 115.5C183.899 115.5 197.917 101.37 197.917 84.0001C197.917 66.6298 183.899 52.5001 166.667 52.5001ZM166.667 105C155.182 105 145.833 95.5764 145.833 83.9996C145.833 72.4229 155.182 62.9995 166.667 62.9995C168.724 62.9995 170.672 63.3947 172.551 63.9578C170.21 67.9799 170.572 73.171 173.991 76.6168C176.025 78.6678 178.69 79.6827 181.355 79.6827C183.181 79.6827 184.925 79.0271 186.548 78.0678C187.107 79.9617 187.5 81.9261 187.5 83.9996C187.5 95.5769 178.151 105 166.667 105Z" fill="#303237"/>
</g>
<defs>
<clipPath id="clip0_42_56">
<rect width="250" height="252" fill="white"/>
</clipPath>
</defs>
</svg>
