<svg width="250" height="250" viewBox="0 0 250 250" fill="none" xmlns="http://www.w3.org/2000/svg">
<g id="smiling-girl" clip-path="url(#clip0_42_35)">
<g id="Group">
<path id="Vector" d="M141.418 188.891C132.366 197.944 117.637 197.944 108.586 188.891C106.733 187.039 103.73 187.039 101.877 188.891C100.024 190.744 100.024 193.748 101.877 195.6C108.253 201.976 116.628 205.164 125.002 205.164C133.377 205.164 141.752 201.976 148.128 195.6C149.981 193.748 149.981 190.744 148.128 188.891C146.275 187.039 143.271 187.039 141.418 188.891Z" fill="#303237"/>
<path id="Vector_2" d="M232.365 235.959C221.252 223.652 220.781 192.294 222.097 159.847C226.938 155.301 229.97 148.85 229.97 141.7C229.97 135.421 227.63 129.683 223.783 125.297C225.4 92.2034 226.257 70.0725 215.76 49.6377C208.599 35.6943 197.011 24.0441 181.319 15.011C163.03 4.48339 142.168 -0.684318 120.986 0.0729887C102.381 0.736002 85.0586 9.4044 73.1137 23.9486C57.69 24.866 43.6594 33.2598 36.1106 46.2331C35.4624 47.3468 34.8356 48.492 34.2473 49.6371C23.7441 70.0832 24.601 92.2123 26.2176 125.303C22.373 129.687 20.0352 135.424 20.0352 141.7C20.0352 148.847 23.0656 155.296 27.9042 159.843C29.2196 192.292 28.7493 223.653 17.6358 235.959C16.5849 237.123 16.1769 238.731 16.5458 240.255C16.9147 241.779 18.013 243.023 19.4796 243.577C31.9884 248.304 44.103 249.994 55.0368 249.994C66.3952 249.994 76.4792 248.169 84.3956 246.028C98.151 242.308 107.853 237.087 111.163 235.161C115.669 235.903 120.29 236.296 125.002 236.296C129.714 236.296 134.334 235.904 138.838 235.161C142.149 237.089 151.85 242.308 165.605 246.028C176.165 248.883 185.955 250 194.811 250C209.564 250 221.724 246.9 230.521 243.576C231.988 243.022 233.086 241.779 233.454 240.254C233.824 238.731 233.416 237.123 232.365 235.959ZM209.807 151.493V127.94C209.808 127.878 209.808 127.815 209.807 127.752V127.031C215.994 129.037 220.481 134.853 220.481 141.699C220.481 148.6 215.924 154.457 209.66 156.418C209.754 154.788 209.807 153.147 209.807 151.493ZM42.6874 53.9728C43.2004 52.9747 43.7466 51.976 44.3117 51.0052C50.5605 40.266 62.512 33.503 75.5018 33.3553C75.5167 33.3553 75.5522 33.3547 75.5677 33.3541C77.0087 33.3239 78.3573 32.6407 79.2344 31.4973C89.4732 18.1416 104.814 10.1439 121.324 9.55503C140.728 8.86296 159.837 13.5936 176.584 23.234C190.666 31.3402 201.006 41.6821 207.319 53.9728C215.721 70.3287 215.97 88.1204 214.592 118.691C213.067 118.057 211.466 117.572 209.807 117.25V112.426C209.807 109.806 207.682 107.682 205.062 107.682C202.442 107.682 200.318 109.806 200.318 112.426V123.201C134.966 123.899 99.588 92.4211 90.148 82.5725C89.0373 81.4137 87.4159 80.8954 85.8408 81.1937C84.2639 81.492 82.945 82.5672 82.3348 84.0516C75.4407 100.821 63.3956 109.595 44.4291 111.663C42.022 111.925 40.199 113.958 40.199 116.379V117.25C38.5379 117.572 36.935 118.057 35.4085 118.692C34.0303 88.1287 34.2811 70.3376 42.6874 53.9728ZM40.3449 156.418C34.0813 154.458 29.5238 148.601 29.5238 141.7C29.5238 134.853 34.0113 129.037 40.1984 127.031V151.493C40.1984 153.147 40.2512 154.788 40.3449 156.418ZM28.7552 236.706C37.2155 222.266 38.6826 198.26 37.6069 165.503C38.8665 165.892 40.17 166.179 41.5055 166.364C46.9015 196.744 68.5289 221.579 97.0699 231.564C83.3429 237.471 57.3621 245.298 28.7552 236.706ZM125.002 226.808C83.4734 226.808 49.687 193.021 49.687 151.492L49.6876 120.52C67.4804 117.592 80.1483 108.833 88.1786 93.887C95.0139 100.123 106.066 108.675 121.641 116.17C145.06 127.44 171.508 132.999 200.318 132.691V151.492C200.318 193.022 166.532 226.808 125.002 226.808ZM168.394 236.952C162.31 235.326 157.061 233.361 152.918 231.57C181.468 221.59 203.103 196.75 208.5 166.364C209.834 166.179 211.136 165.893 212.395 165.504C211.318 198.265 212.785 222.271 221.249 236.711C204.494 241.772 186.745 241.858 168.394 236.952Z" fill="#303237"/>
<path id="Vector_3" d="M68.2964 137.433C66.4432 139.285 66.4432 142.289 68.2964 144.142C70.1491 145.994 73.1528 145.994 75.0054 144.142C78.0465 141.102 82.9936 141.101 86.0347 144.142C86.961 145.068 88.175 145.531 89.3895 145.531C90.604 145.531 91.818 145.068 92.7443 144.142C94.5975 142.289 94.5975 139.285 92.7443 137.433C86.0045 130.692 75.0363 130.691 68.2964 137.433Z" fill="#303237"/>
<path id="Vector_4" d="M181.709 144.141C183.562 142.289 183.562 139.285 181.709 137.432C174.969 130.692 164.001 130.692 157.261 137.432C155.408 139.285 155.408 142.289 157.261 144.141C159.114 145.994 162.118 145.994 163.97 144.141C167.011 141.101 171.959 141.102 175 144.141C175.926 145.068 177.14 145.531 178.354 145.531C179.569 145.531 180.783 145.068 181.709 144.141Z" fill="#303237"/>
</g>
</g>
<defs>
<clipPath id="clip0_42_35">
<rect width="250" height="250" fill="white"/>
</clipPath>
</defs>
</svg>
